<?xml version="1.0" encoding="UTF-8"?>
<svg xmlns="http://www.w3.org/2000/svg" width="1600" height="1130" viewBox="0 0 1600 1130" role="img" aria-label="TAD e struct em C#">
  <defs>
    <filter id="shadow" x="-20%" y="-20%" width="140%" height="140%">
      <feDropShadow dx="0" dy="10" stdDeviation="14" flood-color="#102033" flood-opacity="0.12"/>
    </filter>
    <marker id="arrow-accent" viewBox="0 0 10 10" refX="8" refY="5" markerWidth="7" markerHeight="7" orient="auto-start-reverse">
      <path d="M 0 0 L 10 5 L 0 10 z" fill="#1d5d94"/>
    </marker>
    <marker id="arrow-muted" viewBox="0 0 10 10" refX="8" refY="5" markerWidth="7" markerHeight="7" orient="auto-start-reverse">
      <path d="M 0 0 L 10 5 L 0 10 z" fill="#5b6b7b"/>
    </marker>
    <marker id="arrow-amber" viewBox="0 0 10 10" refX="8" refY="5" markerWidth="7" markerHeight="7" orient="auto-start-reverse">
      <path d="M 0 0 L 10 5 L 0 10 z" fill="#d8891f"/>
    </marker>
    <style>
      .card { filter: url(#shadow); }
      .small-caps { letter-spacing: .08em; text-transform: uppercase; }
    </style>
  </defs>
  <rect width="1600" height="1130" fill="#fbfcff"/>
  <rect width="1600" height="16" fill="#1d5d94"/>
  <rect y="1112" width="1600" height="18" fill="#1d5d94"/>
  
    <rect x="0" y="16" width="470" height="1096" fill="#eaf3fb"/>
    <rect x="0" y="16" width="36" height="1096" fill="#1d5d94"/>
    <rect x="90" y="82" width="280" height="58" rx="18" fill="#ffffff" stroke="#1d5d94" stroke-width="2"/>
    <text x="120" y="119" font-family="Segoe UI, Arial, sans-serif" font-size="26" fill="#1d5d94" font-weight="800"><tspan x="120" dy="0">Módulo 01</tspan></text>
    <text x="90" y="250" font-family="Segoe UI, Arial, sans-serif" font-size="68" fill="#172331" font-weight="900"><tspan x="90" dy="0">TAD e struct em C#</tspan></text>
    <text x="94" y="386" font-family="Segoe UI, Arial, sans-serif" font-size="31" fill="#5b6b7b"><tspan x="94" dy="0">Resumo visual para explicar Tipo Abstrato de Dados e o</tspan><tspan x="94" dy="39.68">uso de struct como modelo simples.</tspan></text>
    <rect x="94" y="520" width="138" height="48" rx="14" fill="#ffffff" stroke="#1d5d94" stroke-width="2"/>
      <text x="163" y="552" font-family="Segoe UI, Arial, sans-serif" font-size="22" fill="#1d5d94" font-weight="800" text-anchor="middle"><tspan x="163" dy="0">TAD</tspan></text><rect x="262" y="520" width="138" height="48" rx="14" fill="#ffffff" stroke="#1d5d94" stroke-width="2"/>
      <text x="331" y="552" font-family="Segoe UI, Arial, sans-serif" font-size="22" fill="#1d5d94" font-weight="800" text-anchor="middle"><tspan x="331" dy="0">struct</tspan></text><rect x="430" y="520" width="138" height="48" rx="14" fill="#ffffff" stroke="#1d5d94" stroke-width="2"/>
      <text x="499" y="552" font-family="Segoe UI, Arial, sans-serif" font-size="22" fill="#1d5d94" font-weight="800" text-anchor="middle"><tspan x="499" dy="0">C#</tspan></text><rect x="598" y="520" width="138" height="48" rx="14" fill="#ffffff" stroke="#1d5d94" stroke-width="2"/>
      <text x="667" y="552" font-family="Segoe UI, Arial, sans-serif" font-size="22" fill="#1d5d94" font-weight="800" text-anchor="middle"><tspan x="667" dy="0">modelagem</tspan></text>
    
    <g class="card">
      <rect x="1130" y="150" width="330" height="330" rx="34" fill="#ffffff" stroke="#d8e1ea" stroke-width="2"/>
      <line x1="1295" y1="315" x2="1225" y2="220" stroke="#1d5d94" stroke-width="3" opacity=".55"/><line x1="1295" y1="315" x2="1365" y2="220" stroke="#1d5d94" stroke-width="3" opacity=".55"/><line x1="1295" y1="315" x2="1225" y2="414" stroke="#1d5d94" stroke-width="3" opacity=".55"/><line x1="1295" y1="315" x2="1365" y2="414" stroke="#1d5d94" stroke-width="3" opacity=".55"/>
      <rect x="1219" y="263" width="152" height="104" rx="24" fill="#1d5d94"/>
      <text x="1295" y="331" font-family="Segoe UI, Arial, sans-serif" font-size="48" fill="#ffffff" font-weight="900" text-anchor="middle"><tspan x="1295" dy="0">ED</tspan></text>
      <rect x="1165" y="192" width="120" height="56" rx="16" fill="#eaf3fb" stroke="#1d5d94" stroke-width="2"/>
        <text x="1225" y="228" font-family="Segoe UI, Arial, sans-serif" font-size="19" fill="#1d5d94" font-weight="800" text-anchor="middle"><tspan x="1225" dy="0">TAD</tspan></text><rect x="1305" y="192" width="120" height="56" rx="16" fill="#eaf3fb" stroke="#1d5d94" stroke-width="2"/>
        <text x="1365" y="228" font-family="Segoe UI, Arial, sans-serif" font-size="19" fill="#1d5d94" font-weight="800" text-anchor="middle"><tspan x="1365" dy="0">struct</tspan></text><rect x="1165" y="386" width="120" height="56" rx="16" fill="#eaf3fb" stroke="#1d5d94" stroke-width="2"/>
        <text x="1225" y="422" font-family="Segoe UI, Arial, sans-serif" font-size="19" fill="#1d5d94" font-weight="800" text-anchor="middle"><tspan x="1225" dy="0">C#</tspan></text><rect x="1305" y="386" width="120" height="56" rx="16" fill="#eaf3fb" stroke="#1d5d94" stroke-width="2"/>
        <text x="1365" y="422" font-family="Segoe UI, Arial, sans-serif" font-size="19" fill="#1d5d94" font-weight="800" text-anchor="middle"><tspan x="1365" dy="0">modelagem</tspan></text>
    </g>
  
    
    <g class="card">
      <rect x="90" y="720" width="430" height="220" rx="18" fill="#ffffff" stroke="#d8e1ea" stroke-width="2"/>
      <rect x="90" y="720" width="12" height="220" rx="6" fill="#1d5d94"/>
      
      <text x="126" y="774" font-family="Segoe UI, Arial, sans-serif" font-size="29" fill="#172331" font-weight="800"><tspan x="126" dy="0">Ideia central</tspan></text>
      <text x="126" y="832" font-family="Segoe UI, Arial, sans-serif" font-size="23" fill="#5b6b7b"><tspan x="126" dy="0">Um TAD define quais dados</tspan><tspan x="126" dy="29.44">existem e quais operações</tspan><tspan x="126" dy="29.44">podem ser feitas sobre eles.</tspan></text>
    </g>
  
    <g class="card">
      <rect x="575" y="720" width="430" height="220" rx="18" fill="#ffffff" stroke="#d8e1ea" stroke-width="2"/>
      <rect x="575" y="720" width="12" height="220" rx="6" fill="#1d5d94"/>
      
      <text x="611" y="774" font-family="Segoe UI, Arial, sans-serif" font-size="29" fill="#172331" font-weight="800"><tspan x="611" dy="0">Por que usar</tspan></text>
      <text x="611" y="832" font-family="Segoe UI, Arial, sans-serif" font-size="23" fill="#5b6b7b"><tspan x="611" dy="0">Ajuda a separar o</tspan><tspan x="611" dy="29.44">comportamento esperado dos</tspan><tspan x="611" dy="29.44">detalhes internos da</tspan><tspan x="611" dy="29.44">implementação.</tspan></text>
    </g>
  
    <g class="card">
      <rect x="1060" y="720" width="430" height="220" rx="18" fill="#ffffff" stroke="#d8e1ea" stroke-width="2"/>
      <rect x="1060" y="720" width="12" height="220" rx="6" fill="#1d5d94"/>
      
      <text x="1096" y="774" font-family="Segoe UI, Arial, sans-serif" font-size="29" fill="#172331" font-weight="800"><tspan x="1096" dy="0">No projeto</tspan></text>
      <text x="1096" y="832" font-family="Segoe UI, Arial, sans-serif" font-size="23" fill="#5b6b7b"><tspan x="1096" dy="0">Use como material de apoio</tspan><tspan x="1096" dy="29.44">para explicar conceitos antes</tspan><tspan x="1096" dy="29.44">dos exemplos de código.</tspan></text>
    </g>
  
  
</svg>