<?xml version="1.0" encoding="UTF-8"?>
<svg xmlns="http://www.w3.org/2000/svg" width="1600" height="1130" viewBox="0 0 1600 1130" role="img" aria-label="Classe No e inserir no início">
  <defs>
    <filter id="shadow" x="-20%" y="-20%" width="140%" height="140%">
      <feDropShadow dx="0" dy="10" stdDeviation="14" flood-color="#102033" flood-opacity="0.12"/>
    </filter>
    <marker id="arrow-accent" viewBox="0 0 10 10" refX="8" refY="5" markerWidth="7" markerHeight="7" orient="auto-start-reverse">
      <path d="M 0 0 L 10 5 L 0 10 z" fill="#168c7a"/>
    </marker>
    <marker id="arrow-muted" viewBox="0 0 10 10" refX="8" refY="5" markerWidth="7" markerHeight="7" orient="auto-start-reverse">
      <path d="M 0 0 L 10 5 L 0 10 z" fill="#5b6b7b"/>
    </marker>
    <marker id="arrow-amber" viewBox="0 0 10 10" refX="8" refY="5" markerWidth="7" markerHeight="7" orient="auto-start-reverse">
      <path d="M 0 0 L 10 5 L 0 10 z" fill="#d8891f"/>
    </marker>
    <style>
      .card { filter: url(#shadow); }
      .small-caps { letter-spacing: .08em; text-transform: uppercase; }
    </style>
  </defs>
  <rect width="1600" height="1130" fill="#fbfcff"/>
  <rect width="1600" height="16" fill="#168c7a"/>
  <rect y="1112" width="1600" height="18" fill="#168c7a"/>
  
    <text x="90" y="72" font-family="Segoe UI, Arial, sans-serif" font-size="24" fill="#168c7a" font-weight="700"><tspan x="90" dy="0">CÓDIGO EM C#</tspan></text>
    <text x="1510" y="72" font-family="Segoe UI, Arial, sans-serif" font-size="22" fill="#5b6b7b" text-anchor="end"><tspan x="1510" dy="0">Grupo 6 | Estrutura de Dados</tspan></text>
    <text x="90" y="142" font-family="Segoe UI, Arial, sans-serif" font-size="60" fill="#172331" font-weight="800"><tspan x="90" dy="0">Classe No e inserir no início</tspan></text>
    <text x="94" y="222" font-family="Segoe UI, Arial, sans-serif" font-size="27" fill="#5b6b7b"><tspan x="94" dy="0">Modelo simples para usar como base na página do projeto.</tspan></text>
  
       
       
       
    
    <g class="card">
      <rect x="90" y="315" width="950" height="625" rx="20" fill="#18222f"/>
      <rect x="90" y="315" width="950" height="76" rx="20" fill="#168c7a"/>
      <rect x="90" y="361" width="950" height="30" fill="#168c7a"/>
      <text x="124" y="363" font-family="Segoe UI, Arial, sans-serif" font-size="27" fill="#ffffff" font-weight="800"><tspan x="124" dy="0">Lista simples</tspan></text>
      <rect x="114" y="412" width="902" height="31.55" rx="6" fill="#263445" opacity=".72"/><text x="128" y="431" font-family="Consolas, Menlo, monospace" font-size="19" fill="#eef6ff"><tspan x="128" dy="0">public class No</tspan></text><text x="128" y="458.55" font-family="Consolas, Menlo, monospace" font-size="19" fill="#eef6ff"><tspan x="128" dy="0">{</tspan></text><rect x="114" y="467.1" width="902" height="31.55" rx="6" fill="#263445" opacity=".72"/><text x="128" y="486.1" font-family="Consolas, Menlo, monospace" font-size="19" fill="#eef6ff"><tspan x="128" dy="0">public int Valor;</tspan></text><text x="128" y="513.65" font-family="Consolas, Menlo, monospace" font-size="19" fill="#eef6ff"><tspan x="128" dy="0">public No Prox;</tspan></text><rect x="114" y="522.2" width="902" height="31.55" rx="6" fill="#263445" opacity=".72"/><text x="128" y="541.2" font-family="Consolas, Menlo, monospace" font-size="19" fill="#eef6ff"></text><text x="128" y="568.75" font-family="Consolas, Menlo, monospace" font-size="19" fill="#eef6ff"><tspan x="128" dy="0">public No(int valor)</tspan></text><rect x="114" y="577.3" width="902" height="31.55" rx="6" fill="#263445" opacity=".72"/><text x="128" y="596.3" font-family="Consolas, Menlo, monospace" font-size="19" fill="#eef6ff"><tspan x="128" dy="0">{</tspan></text><text x="128" y="623.85" font-family="Consolas, Menlo, monospace" font-size="19" fill="#eef6ff"><tspan x="128" dy="0">Valor = valor;</tspan></text><rect x="114" y="632.4" width="902" height="31.55" rx="6" fill="#263445" opacity=".72"/><text x="128" y="651.4" font-family="Consolas, Menlo, monospace" font-size="19" fill="#eef6ff"><tspan x="128" dy="0">Prox = null;</tspan></text><text x="128" y="678.95" font-family="Consolas, Menlo, monospace" font-size="19" fill="#eef6ff"><tspan x="128" dy="0">}</tspan></text><rect x="114" y="687.5" width="902" height="31.55" rx="6" fill="#263445" opacity=".72"/><text x="128" y="706.5" font-family="Consolas, Menlo, monospace" font-size="19" fill="#eef6ff"><tspan x="128" dy="0">}</tspan></text><text x="128" y="734.05" font-family="Consolas, Menlo, monospace" font-size="19" fill="#eef6ff"></text><rect x="114" y="742.6" width="902" height="31.55" rx="6" fill="#263445" opacity=".72"/><text x="128" y="761.6" font-family="Consolas, Menlo, monospace" font-size="19" fill="#eef6ff"><tspan x="128" dy="0">public void InserirInicio(int valor)</tspan></text><text x="128" y="789.1500000000001" font-family="Consolas, Menlo, monospace" font-size="19" fill="#eef6ff"><tspan x="128" dy="0">{</tspan></text><rect x="114" y="797.7" width="902" height="31.55" rx="6" fill="#263445" opacity=".72"/><text x="128" y="816.7" font-family="Consolas, Menlo, monospace" font-size="19" fill="#eef6ff"><tspan x="128" dy="0">No novo = new No(valor);</tspan></text><text x="128" y="844.25" font-family="Consolas, Menlo, monospace" font-size="19" fill="#eef6ff"><tspan x="128" dy="0">novo.Prox = inicio;</tspan></text><rect x="114" y="852.8" width="902" height="31.55" rx="6" fill="#263445" opacity=".72"/><text x="128" y="871.8" font-family="Consolas, Menlo, monospace" font-size="19" fill="#eef6ff"><tspan x="128" dy="0">inicio = novo;</tspan></text><text x="128" y="899.35" font-family="Consolas, Menlo, monospace" font-size="19" fill="#eef6ff"></text>
    </g>
  
    
    <g class="card">
      <rect x="1110" y="345" width="400" height="220" rx="18" fill="#ffffff" stroke="#d8e1ea" stroke-width="2"/>
      <rect x="1110" y="345" width="12" height="220" rx="6" fill="#168c7a"/>
      
      <text x="1146" y="399" font-family="Segoe UI, Arial, sans-serif" font-size="28" fill="#172331" font-weight="800"><tspan x="1146" dy="0">Valor</tspan></text>
      <text x="1146" y="457" font-family="Segoe UI, Arial, sans-serif" font-size="22" fill="#5b6b7b"><tspan x="1146" dy="0">Guarda a informação</tspan><tspan x="1146" dy="28.16">principal do nó.</tspan></text>
    </g>
  
    <g class="card">
      <rect x="1110" y="610" width="400" height="220" rx="18" fill="#ffffff" stroke="#d8e1ea" stroke-width="2"/>
      <rect x="1110" y="610" width="12" height="220" rx="6" fill="#168c7a"/>
      
      <text x="1146" y="664" font-family="Segoe UI, Arial, sans-serif" font-size="28" fill="#172331" font-weight="800"><tspan x="1146" dy="0">Prox</tspan></text>
      <text x="1146" y="722" font-family="Segoe UI, Arial, sans-serif" font-size="22" fill="#5b6b7b"><tspan x="1146" dy="0">Guarda a referência para o</tspan><tspan x="1146" dy="28.16">próximo nó da sequência.</tspan></text>
    </g>
  
  
       
       
       
    <line x1="90" y1="1044" x2="1510" y2="1044" stroke="#d8e1ea" stroke-width="2"/>
    <text x="90" y="1082" font-family="Segoe UI, Arial, sans-serif" font-size="21" fill="#5b6b7b"><tspan x="90" dy="0">Exemplo alinhado ao conteúdo da lista simples.</tspan></text>
    <text x="1510" y="1082" font-family="Segoe UI, Arial, sans-serif" font-size="21" fill="#5b6b7b" text-anchor="end"><tspan x="1510" dy="0">07 / 07</tspan></text>
  
</svg>